Coordinates
version=1
nRows=10
nColumns=60
inDegrees=yes

Units are S.I. units (second, meters, Newtons, ...)
If the header above contains a line with 'inDegrees', this indicates whether rotational values are in degrees (yes) or radians (no).

endheader
time	pelvis_tilt	pelvis_list	pelvis_rotation	pelvis_tx	pelvis_ty	pelvis_tz	hip_flexion_r	hip_adduction_r	hip_rotation_r	knee_angle_r_beta	knee_angle_r	ankle_angle_r	subtalar_angle_r	mtp_angle_r	hip_flexion_l	hip_adduction_l	hip_rotation_l	knee_angle_l_beta	knee_angle_l	ankle_angle_l	subtalar_angle_l	mtp_angle_l	L5_S1_Flex_Ext	L5_S1_Lat_Bending	L5_S1_axial_rotation	L4_L5_Flex_Ext	L4_L5_Lat_Bending	L4_L5_axial_rotation	L3_L4_Flex_Ext	L3_L4_Lat_Bending	L3_L4_axial_rotation	L2_L3_Flex_Ext	L2_L3_Lat_Bending	L2_L3_axial_rotation	L1_L2_Flex_Ext	L1_L2_Lat_Bending	L1_L2_axial_rotation	L1_T12_Flex_Ext	L1_T12_Lat_Bending	L1_T12_axial_rotation	Abs_r3	Abs_r2	Abs_r1	Abs_t1	Abs_t2	arm_flex_r	arm_add_r	arm_rot_r	elbow_flex_r	pro_sup_r	wrist_flex_r	wrist_dev_r	arm_flex_l	arm_add_l	arm_rot_l	elbow_flex_l	pro_sup_l	wrist_flex_l	wrist_dev_l
     57.39000000	      1.00120282	     -5.56083418	     91.98662677	      0.40548565	      0.88519855	      0.40912247	     33.73230826	     -4.62031073	      1.25556849	      0.53774957	    -30.81078100	      5.78028982	      0.00000000	      0.00000000	     34.86773391	     -6.12513272	      0.84561224	      0.53762740	    -30.80378078	      5.90477289	      0.00000000	      0.00000000	    -10.78486559	      0.35585251	      0.40870445	    -20.02857388	      0.47328384	      0.43424848	    -17.71845567	      0.86521979	      0.43424848	    -12.32602288	      0.86521979	      0.35761639	    -10.01482618	      0.72565444	      0.33207237	     -6.16247220	      0.55121554	      0.30652834	    -77.03521640	      4.02547476	      2.27309154	      0.00000000	      0.00000000	     66.60415053	    -23.32325903	     18.81687874	     51.25866726	     73.43473364	     11.54923292	     -3.48096649	     75.06610192	    -19.30281392	     37.19469260	     42.62909117	     56.23700845	     19.97737548	     -1.78095439
     57.40000000	      1.02679966	     -5.87393466	     91.95800333	      0.40541101	      0.88304547	      0.41023415	     34.54475129	     -4.63201233	      1.19135120	      0.55006962	    -31.51666762	      5.91655059	      0.00000000	      0.00000000	     35.69783744	     -6.17785823	      0.76531692	      0.55053212	    -31.54316668	      6.08744621	      0.00000000	      0.00000000	    -10.85238210	      0.35786295	      0.42017792	    -20.15395880	      0.47595773	      0.44643904	    -17.82937855	      0.87010799	      0.44643904	    -12.40318750	      0.87010799	      0.36765568	    -10.07752202	      0.72975414	      0.34139456	     -6.20105113	      0.55432972	      0.31513344	    -77.51748011	      4.04821731	      2.33690353	      0.00000000	      0.00000000	     67.78248227	    -23.25570877	     18.82728843	     51.11328012	     73.47624701	     11.59145004	     -3.45667138	     75.98554841	    -19.20520457	     37.13166398	     42.44325146	     56.25540937	     19.97673399	     -1.79203418
     57.41000000	      1.05810203	     -6.34854754	     91.94191128	      0.40528833	      0.88055992	      0.41134772	     35.55039042	     -4.64592962	      1.14437531	      0.56307050	    -32.26156335	      6.09291662	      0.00000000	      0.00000000	     36.72234685	     -6.21214807	      0.72898880	      0.56404606	    -32.31745883	      6.34320316	      0.00000000	      0.00000000	    -10.88327737	      0.35847132	      0.42410592	    -20.21133441	      0.47676686	      0.45061254	    -17.88013640	      0.87158718	      0.45061254	    -12.43849771	      0.87158718	      0.37109268	    -10.10621137	      0.73099472	      0.34458606	     -6.21870469	      0.55527208	      0.31807944	    -77.73816195	      4.05509931	      2.35874990	      0.00000000	      0.00000000	     68.95950228	    -23.16971323	     19.04444763	     50.75197867	     73.60195604	     11.68862514	     -3.41291774	     76.83208164	    -19.13038524	     37.14685744	     42.15496798	     56.25462333	     19.97493353	     -1.86855142
     57.42000000	      1.06983052	     -6.77644899	     91.90769807	      0.40514531	      0.87815451	      0.41232118	     36.48979933	     -4.66416158	      1.14662909	      0.57577728	    -32.98960817	      6.23310091	      0.00000000	      0.00000000	     37.66254923	     -6.22409357	      0.72060689	      0.57688247	    -33.05293101	      6.55220805	      0.00000000	      0.00000000	    -10.91882310	      0.35759876	      0.42429015	    -20.27734638	      0.47560635	      0.45080829	    -17.93853447	      0.86946563	      0.45080829	    -12.47912292	      0.86946563	      0.37125388	    -10.13921913	      0.72921540	      0.34473575	     -6.23901552	      0.55392048	      0.31821761	    -77.99206151	      4.04522872	      2.35977454	      0.00000000	      0.00000000	     70.09266621	    -23.06500443	     19.22293673	     50.46106067	     73.77248025	     11.81860283	     -3.42009496	     77.61841954	    -19.12405897	     37.09139154	     41.98790053	     56.17705169	     19.89698914	     -2.07620342
     57.43000000	      1.06811041	     -7.19949065	     91.87630612	      0.40500548	      0.87574507	      0.41312700	     37.43135094	     -4.71167530	      1.06703335	      0.58918712	    -33.75793539	      6.41766045	      0.00000000	      0.00000000	     38.59408912	     -6.25075608	      0.57693047	      0.58991330	    -33.79954209	      6.80118785	      0.00000000	      0.00000000	    -10.95251693	      0.35430489	      0.42347627	    -20.33991918	      0.47122550	      0.44994354	    -17.99389006	      0.86145691	      0.44994354	    -12.51763160	      0.86145691	      0.37054174	    -10.17050722	      0.72249853	      0.34407447	     -6.25826817	      0.54881827	      0.31760720	    -78.23273316	      4.00796776	      2.35524797	      0.00000000	      0.00000000	     71.12852015	    -22.97269409	     19.31955574	     50.27839735	     73.89962850	     11.90957314	     -3.43980312	     78.37009977	    -19.11896457	     36.99820443	     41.88117699	     56.07374354	     19.74898481	     -2.27584987
     57.44000000	      1.04287118	     -7.43207443	     91.83008120	      0.40482356	      0.87373120	      0.41378404	     38.08828982	     -4.71435245	      1.25971622	      0.60004313	    -34.37993873	      6.47624182	      0.00000000	      0.00000000	     39.22425614	     -6.19970725	      0.70913106	      0.60049510	    -34.40583491	      6.88270948	      0.00000000	      0.00000000	    -11.01834806	      0.35359931	      0.42678786	    -20.46217419	      0.47028708	      0.45346210	    -18.10204403	      0.85974135	      0.45346210	    -12.59287000	      0.85974135	      0.37343938	    -10.23163801	      0.72105971	      0.34676514	     -6.29588408	      0.54772533	      0.32009090	    -78.70295838	      3.99998608	      2.37366606	      0.00000000	      0.00000000	     72.13714036	    -22.92593710	     19.22957291	     50.31247104	     73.94071281	     11.93383996	     -3.46559462	     79.15654413	    -19.14950442	     36.82411078	     41.85053680	     56.01565710	     19.65074181	     -2.38102080
     57.45000000	      1.01047559	     -7.83398625	     91.77415249	      0.40465086	      0.87127639	      0.41439746	     39.04408498	     -4.77244948	      1.22347654	      0.61482553	    -35.22690822	      6.70808851	      0.00000000	      0.00000000	     40.13760118	     -6.19344182	      0.56677242	      0.61434578	    -35.19942047	      7.13460287	      0.00000000	      0.00000000	    -11.04498112	      0.34860593	      0.42263476	    -20.51163444	      0.46364589	      0.44904944	    -18.14579948	      0.84760046	      0.44904944	    -12.62330892	      0.84760046	      0.36980542	    -10.25636947	      0.71087721	      0.34339075	     -6.31110221	      0.53999059	      0.31697607	    -78.89319565	      3.94350000	      2.35056776	      0.00000000	      0.00000000	     73.07827539	    -22.80626493	     19.28956876	     50.18576916	     74.02072783	     11.98259025	     -3.46904316	     79.84958816	    -19.17551110	     36.71456398	     41.74272478	     55.91511416	     19.46117729	     -2.54304344
     57.46000000	      0.97820937	     -8.22044940	     91.75123410	      0.40450403	      0.86894023	      0.41485403	     39.89569195	     -4.80538226	      1.30044885	      0.62717706	    -35.93459858	      6.92026855	      0.00000000	      0.00000000	     40.94918986	     -6.17039042	      0.52729747	      0.62560177	    -35.84434088	      7.33631016	      0.00000000	      0.00000000	    -11.07078869	      0.34341423	      0.41210893	    -20.55956168	      0.45674093	      0.43786574	    -18.18819874	      0.83497736	      0.43786574	    -12.65280440	      0.83497736	      0.36059531	    -10.28033438	      0.70029030	      0.33483850	     -6.32584866	      0.53194864	      0.30908170	    -79.07753655	      3.88477046	      2.29202623	      0.00000000	      0.00000000	     73.96340877	    -22.70395175	     19.29714568	     50.08327356	     74.09058383	     12.02244180	     -3.47603592	     80.50213642	    -19.23294662	     36.61004059	     41.65855751	     55.81031985	     19.25497156	     -2.71147620
     57.47000000	      0.93614637	     -8.59577398	     91.72732109	      0.40436416	      0.86661764	      0.41521421	     40.74993862	     -4.85342962	      1.36142968	      0.64046375	    -36.69586969	      7.15366600	      0.00000000	      0.00000000	     41.76883426	     -6.14882848	      0.44554938	      0.63755614	    -36.52927598	      7.53947537	      0.00000000	      0.00000000	    -11.09334620	      0.33768496	      0.39936704	    -20.60145322	      0.44912100	      0.42432748	    -18.22525847	      0.82104722	      0.42432748	    -12.67858537	      0.82104722	      0.34944616	    -10.30128128	      0.68860718	      0.32448572	     -6.33873802	      0.52307401	      0.29952528	    -79.23866256	      3.81995986	      2.22115966	      0.00000000	      0.00000000	     74.81024800	    -22.56541943	     19.30064264	     49.96127201	     74.16258732	     12.05957685	     -3.48066936	     81.13901681	    -19.29331173	     36.53356168	     41.58124677	     55.69769448	     19.02558112	     -2.89346652
     57.48000000	      0.89461597	     -8.95183760	     91.72078406	      0.40421118	      0.86438724	      0.41549823	     41.55468653	     -4.89723777	      1.43107675	      0.65274000	    -37.39924722	      7.38408670	      0.00000000	      0.00000000	     42.53057163	     -6.11816346	      0.35333023	      0.64855497	    -37.15946247	      7.72538159	      0.00000000	      0.00000000	    -11.11463123	      0.33368159	      0.38626390	    -20.64098167	      0.44379651	      0.41040539	    -18.26022766	      0.81131341	      0.41040539	    -12.70291204	      0.81131341	      0.33798091	    -10.32104656	      0.68044349	      0.31383942	     -6.35090029	      0.51687278	      0.28969793	    -79.39069945	      3.77467283	      2.14828394	      0.00000000	      0.00000000	     75.61114670	    -22.41229226	     19.28795318	     49.84576192	     74.22923909	     12.08725173	     -3.48595353	     81.76974687	    -19.34481239	     36.49066711	     41.53356554	     55.59729970	     18.81577997	     -3.06118473
